<mxfile host="app.diagrams.net" agent="Mozilla/5.0 (Windows NT 10.0; Win64; x64) AppleWebKit/537.36 (KHTML, like Gecko) Chrome/134.0.0.0 Safari/537.36" version="26.2.8">
  <diagram name="PÃ¡gina-1" id="KMyO3exJH4vQ1jQoLAbi">
    <mxGraphModel dx="192" dy="183" grid="1" gridSize="8" guides="1" tooltips="1" connect="1" arrows="1" fold="1" page="1" pageScale="1" pageWidth="827" pageHeight="1169" math="0" shadow="0">
      <root>
        <mxCell id="0" />
        <mxCell id="1" parent="0" />
        <mxCell id="ltTjWD8zr69QerF9KB-l-13" value="" style="group;" parent="1" vertex="1" connectable="0">
          <mxGeometry x="8" y="24" width="40" height="64" as="geometry" />
        </mxCell>
        <mxCell id="ltTjWD8zr69QerF9KB-l-3" value="" style="verticalLabelPosition=bottom;verticalAlign=top;html=1;shape=mxgraph.basic.rect;fillColor2=none;strokeWidth=1;size=20;indent=5;fillColor=none;" parent="ltTjWD8zr69QerF9KB-l-13" vertex="1">
          <mxGeometry width="40" height="64" as="geometry" />
        </mxCell>
      </root>
    </mxGraphModel>
  </diagram>
</mxfile>
